PathFileType	4	(X/Y/Z)	c:/Users/goper/Files/vsCode/490R/osim_files/A06/A06_Fast_04.trc
DataRate	CameraRate	NumFrames	NumMarkers	Units                	OrigDataRate	OrigDataStartFrame	OrigNumFrames
120.00	120.00	5	36	mm	120.0	481	960
                Frame#	Time	LPSIS			LASIS			LTH1			LTH2			LTH3			LTH4			LLFE			LMFE			LSH1			LSH2			LSH3			LSH4			LLMAL			LMMAL			LCAL			LMTP5			LTOE			LMTP1			RPSIS			RASIS			RTH1			RTH2			RTH3			RTH4			RLFE			RMFE			RSH1			RSH2			RSH3			RSH4			RLMAL			RMMAL			RCAL			RMTP1			RTOE			RMTP5		
		X1	Y1	Z1	X2	Y2	Z2	X3	Y3	Z3	X4	Y4	Z4	X5	Y5	Z5	X6	Y6	Z6	X7	Y7	Z7	X8	Y8	Z8	X9	Y9	Z9	X10	Y10	Z10	X11	Y11	Z11	X12	Y12	Z12	X13	Y13	Z13	X14	Y14	Z14	X15	Y15	Z15	X16	Y16	Z16	X17	Y17	Z17	X18	Y18	Z18	X19	Y19	Z19	X20	Y20	Z20	X21	Y21	Z21	X22	Y22	Z22	X23	Y23	Z23	X24	Y24	Z24	X25	Y25	Z25	X26	Y26	Z26	X27	Y27	Z27	X28	Y28	Z28	X29	Y29	Z29	X30	Y30	Z30	X31	Y31	Z31	X32	Y32	Z32	X33	Y33	Z33	X34	Y34	Z34	X35	Y35	Z35	X36	Y36	Z36

481	4.00000	-1836.36694	970.71771	232.74481	-2022.28076	910.03394	301.62219	-2045.85718	560.10168	336.13959	-2069.71094	525.93097	328.75290	-2104.47241	588.87616	326.05276	-2117.19775	548.35022	321.81424	-2126.95020	476.66357	312.80832	-2121.23535	470.95963	203.27309	-2118.56982	373.02414	327.43497	-2145.86060	336.49820	333.55301	-2171.40259	403.63126	318.81570	-2191.15894	366.22351	324.87338	-2278.36694	111.29543	293.89056	-2286.64697	133.94527	211.32367	-2229.82251	66.31319	241.24899	-2401.98145	129.47282	309.80234	-2417.93872	174.53409	257.97519	-2407.69556	155.53249	219.76221	-1839.03687	991.16547	101.68919	-2011.86548	939.10699	44.57518	-1805.63123	590.06421	12.75262	-1797.23889	547.25201	11.84649	-1863.68518	571.18433	17.06094	-1846.75793	530.08960	15.27092	-1781.00977	432.60278	38.39258	-1786.89514	433.19122	127.17179	-1708.73303	292.86081	55.02598	-1693.01978	248.12798	57.71530	-1765.67004	269.98279	64.21251	-1740.81763	228.10983	60.17455	-1633.29102	109.01718	52.55799	-1649.97314	111.32897	134.91785	-1576.47607	94.04214	102.69764	-1775.38586	49.73476	123.28638	-1790.39600	58.02091	82.33323	-1760.71155	47.07976	36.44808
482	4.00833	-1849.38977	967.88751	234.01077	-2036.55029	906.96014	300.88998	-2058.78442	557.97992	334.89966	-2082.94751	523.48444	328.23624	-2117.35767	586.67529	325.59344	-2130.65186	546.26233	320.49399	-2140.28271	474.22104	312.78278	-2133.97290	468.88266	203.29182	-2132.50513	370.48294	327.39377	-2159.90430	334.12610	333.49493	-2185.29053	401.32385	318.70288	-2205.40942	364.12790	325.32010	-2293.51392	109.30943	294.05298	-2301.87939	131.81250	211.34700	-2244.28125	64.38130	241.86545	-2417.13452	127.70282	309.57437	-2432.53857	172.86777	257.67169	-2422.34180	153.85492	219.46446	-1851.57324	988.69269	103.22133	-2023.51697	937.80444	43.90151	-1815.24292	589.05267	12.42849	-1804.66467	547.67505	11.12888	-1872.84424	569.12482	16.71430	-1855.27979	528.33331	14.94722	-1788.00562	431.94733	38.18954	-1794.03796	432.57806	126.93301	-1713.49524	293.49762	54.95203	-1696.97339	249.12895	57.72181	-1769.72632	269.88504	63.93866	-1744.29688	228.29340	60.09782	-1634.02014	110.09336	52.70059	-1650.82373	112.17293	135.07971	-1577.21472	95.49303	102.90704	-1775.77979	49.64709	123.32167	-1790.77148	57.82800	82.30220	-1761.09204	47.24242	36.49369
483	4.01667	-1862.59460	964.90100	235.22388	-2049.79980	903.89252	299.49796	-2073.39624	556.02649	334.56445	-2097.65112	521.60406	327.86218	-2131.74194	584.88422	325.13431	-2145.10742	544.42029	319.98251	-2154.93359	472.17120	312.59332	-2147.91919	466.80435	203.17616	-2146.40210	368.10382	327.25748	-2173.59717	331.58456	333.34784	-2199.39526	398.66687	318.50595	-2219.33032	361.45590	325.32379	-2304.97144	106.91629	294.02774	-2313.60254	128.93279	211.36192	-2255.28296	64.06299	241.61101	-2428.56958	122.81462	309.51718	-2444.91919	167.57726	257.65491	-2434.65894	148.57118	219.42969	-1863.87463	986.26886	104.47969	-2035.64160	936.49615	43.08718	-1825.20959	587.87280	12.01997	-1813.84692	546.75531	10.67526	-1882.34705	566.98615	16.25021	-1864.12012	526.60260	14.54691	-1795.16150	431.38745	37.84289	-1801.19702	431.94705	126.64924	-1718.37109	294.15277	54.78127	-1700.93347	250.13535	57.57558	-1773.55310	269.64041	63.60620	-1747.90015	228.61174	59.83523	-1635.09253	111.21879	52.80281	-1651.90894	113.12297	135.20778	-1578.00830	97.15295	102.91434	-1776.16357	49.56375	123.33415	-1790.87488	57.64499	82.65840	-1761.56055	47.43195	36.50727
484	4.02500	-1875.79895	961.84210	236.27026	-2063.51514	900.71179	298.74991	-2088.45996	554.52094	334.20020	-2113.30469	520.08960	327.52573	-2147.05981	583.36194	324.26965	-2160.56567	543.08069	319.25729	-2170.41113	470.49829	312.01804	-2162.86182	464.67508	202.87645	-2160.16479	365.90424	327.09570	-2186.55298	329.08539	333.01416	-2213.58496	395.57977	318.05194	-2232.23022	357.83420	324.22079	-2312.49463	103.57132	293.80750	-2322.78345	124.39732	210.95261	-2261.45117	64.69824	240.80843	-2436.50122	113.94946	309.75076	-2455.09717	157.90083	258.01819	-2444.37793	139.21666	219.59711	-1876.37781	983.87354	105.51727	-2047.76831	935.08130	42.47779	-1835.34924	586.59674	11.54057	-1823.19202	545.55884	10.27925	-1892.12512	564.81079	15.86256	-1873.17444	524.67725	14.17067	-1802.74756	430.76157	37.71197	-1808.54895	431.21201	126.26160	-1723.28320	294.81744	54.51338	-1705.21985	251.11617	57.35594	-1778.00769	269.48380	63.37092	-1751.63428	228.66357	59.72120	-1636.08081	112.41613	52.73246	-1652.91382	114.24524	135.11020	-1578.96680	98.96035	102.84379	-1776.55505	49.43708	123.35777	-1791.52319	57.45198	82.45527	-1762.09692	47.64833	36.44706
485	4.03333	-1889.12170	958.74158	237.06471	-2077.16382	897.55493	298.21359	-2105.13696	553.09503	334.01050	-2129.64722	518.81592	327.08572	-2162.99585	582.24976	323.31149	-2176.81860	542.10132	318.42596	-2186.62158	469.22977	311.17892	-2178.43237	462.66534	202.33969	-2173.75806	363.61282	326.83536	-2199.66821	326.40170	332.72989	-2227.84229	392.30200	317.28159	-2245.59180	354.04062	323.32965	-2317.47925	98.84461	293.36227	-2329.19482	118.61694	210.41644	-2265.02173	65.00607	240.39645	-2442.27368	102.65781	310.08145	-2462.71289	145.46701	258.21555	-2451.50391	128.48518	218.93813	-1889.13049	981.35620	106.23817	-2059.97510	933.51392	42.28202	-1845.82593	585.17859	11.04880	-1832.90283	544.42975	9.85054	-1902.41260	562.48108	15.76777	-1882.42297	522.72351	13.75647	-1810.28662	430.07794	37.29506	-1816.54480	430.33218	125.89451	-1728.48218	295.49524	54.23045	-1709.61792	252.10388	57.06200	-1782.71399	269.28186	63.11546	-1757.33655	228.03484	61.19609	-1637.36194	113.91189	52.66609	-1654.31262	115.59810	135.07019	-1580.21484	101.13261	102.66669	-1777.04785	49.33831	123.39922	-1792.15979	57.10944	82.47271	-1762.82141	47.95520	36.40049
